<?xml version="1.0" encoding="utf-8"?>
<!-- Generator: Adobe Illustrator 26.5.0, SVG Export Plug-In . SVG Version: 6.00 Build 0)  -->
<svg version="1.1" xmlns="http://www.w3.org/2000/svg" xmlns:xlink="http://www.w3.org/1999/xlink" x="0px" y="0px"
	 viewBox="0 0 832.9 175.2" style="enable-background:new 0 0 832.9 175.2;" xml:space="preserve">
<style type="text/css">
	.st0{fill-rule:evenodd;clip-rule:evenodd;fill:#16140F;}
	.st1{fill-rule:evenodd;clip-rule:evenodd;fill:#E3151A;}
</style>
<g id="Layer_1">
</g>
<g id="Layer_2">
	<g>
		<path class="st0" d="M567.9,64l7.9-20.2h18.3h3.2l-0.1,0.1c15.3,0.4,20.4,4.7,18.3,10c-2.1,5.4-12.9,10-28.9,10.1l0,0H586H567.9z
			 M331.7,104.9l7.9-20.2h18.2h3.1v0c15.3,0.4,20.3,4.7,18.3,10.1c-2,5.3-12.9,10-28.9,10.1h-0.1h-0.6H331.7z M347.8,64l8-20.2H374
			h3.2v0.1c15.2,0.4,20.3,4.7,18.3,10c-2.1,5.4-12.9,10-28.9,10.1l0,0h-0.6H347.8z M365.3,133.6h2.2c53.5-0.4,88.9-10.5,95.7-28.4
			c6.5-16.9-7.1-25.9-24.8-30.6c24.6-4.3,40.5-11.3,44.8-22.6c6.8-18-10.1-32.4-61.1-33.7l0.1-0.1h-10.6h-45.7h-56.1l-86.7,54.1
			l40.5,61.3H365.3z M686.4,133.6h11h72.5l45.5-115.4h-83.4l-42.6,108L642.9,83c32-4.2,52.5-12.6,60.3-31
			c7.5-17.7-10.1-32.4-61.1-33.7l0-0.1h-10.6H502.5L457,133.6h83.4l17-43l46.2,43H686.4z"/>
		<path class="st0" d="M746.3,159.9l2.8-2c0.3,1.2,0.7,2,1.2,2.6c0.5,0.5,1.2,0.7,2.1,0.7c1.1,0,2.2-0.3,3-1
			c0.9-0.6,1.5-1.5,1.7-2.5c0.2-0.7,0.2-1.4,0-1.9c-0.2-0.5-0.7-1-1.5-1.6c-0.2-0.1-0.4-0.3-0.7-0.5c-1.4-0.9-2.3-1.6-2.6-2.3
			c-0.3-0.4-0.4-0.9-0.5-1.5c0-0.6,0-1.2,0.2-1.9c0.5-1.9,1.5-3.4,3-4.6c1.5-1.2,3.2-1.8,5.1-1.8c1.3,0,2.4,0.3,3.2,0.8
			c0.9,0.5,1.5,1.3,1.8,2.4l-2.5,1.9c-0.3-0.8-0.6-1.4-1.1-1.7c-0.5-0.4-1.1-0.6-1.8-0.6c-1,0-2,0.3-2.7,0.9
			c-0.8,0.6-1.3,1.4-1.6,2.4c-0.3,1.2,0.4,2.3,2,3.2c0.4,0.2,0.7,0.4,0.9,0.6c1.2,0.8,2,1.7,2.4,2.6c0.4,0.9,0.4,2,0,3.3
			c-0.5,2-1.6,3.6-3.2,4.8c-1.6,1.2-3.5,1.8-5.7,1.8c-1.5,0-2.7-0.3-3.6-1.1C747.1,162.3,746.6,161.3,746.3,159.9L746.3,159.9z
			 M681,142.3l-4.8,12.4c-0.2,0.4-0.3,0.8-0.4,1.2c-0.2,0.3-0.3,0.7-0.3,1c-0.3,1.3-0.2,2.4,0.4,3.1c0.6,0.7,1.6,1.1,3,1.1
			c1.1,0,2-0.2,2.9-0.5c0.9-0.4,1.7-0.9,2.4-1.6c1-0.9,1.9-2.7,2.8-5.2c0.1-0.2,0.2-0.5,0.2-0.6l4.2-10.8h3.3l-4.7,12
			c-0.8,2-1.5,3.5-2,4.4c-0.6,0.9-1.2,1.7-2,2.4c-1.1,1-2.3,1.8-3.8,2.3c-1.4,0.5-2.9,0.8-4.7,0.8c-2.4,0-4.1-0.6-5-1.8
			c-0.9-1.2-1.1-2.9-0.5-5.3c0.1-0.5,0.3-1.2,0.7-2.1c0.3-0.9,0.7-1.9,1.1-3l3.8-9.7H681z M598,163.5l8.3-21.2h11.9l-1.2,3h-8.6
			l-2.1,5.4h8.6l-1.1,3h-8.6l-2.6,6.9h8.6l-1.2,3H598z M518.9,163.5l8.6-22.1l8.1,13.3c0.3,0.5,0.5,0.9,0.8,1.4
			c0.2,0.4,0.4,0.9,0.6,1.3c0.2-0.4,0.3-0.9,0.4-1.4c0.2-0.5,0.4-1.1,0.7-1.9l4.7-11.8h3.1l-8.6,22.1l-8.2-13.3
			c-0.3-0.6-0.6-1.1-0.9-1.5c-0.2-0.4-0.3-0.8-0.5-1.2c-0.2,0.7-0.5,1.7-1.1,3c-0.1,0.1-0.1,0.2-0.1,0.3l-4.6,11.8H518.9z
			 M450.4,163.5h-3.3l8.3-21.2h4.4c1.7,0,2.9,0.1,3.6,0.3c0.7,0.2,1.3,0.5,1.8,1c0.5,0.5,0.8,1.1,0.9,1.9c0.1,0.7,0.1,1.6-0.2,2.5
			c-0.2,1.1-0.7,2.1-1.3,2.9c-0.6,0.8-1.4,1.6-2.3,2.2c-0.8,0.5-1.6,0.9-2.5,1.1c-0.9,0.2-2.3,0.3-4.1,0.3h-0.9H454L450.4,163.5z
			 M455.2,151.4h1.1c2.1,0,3.6-0.2,4.5-0.8c0.9-0.5,1.5-1.3,1.8-2.5c0.2-1,0.1-1.8-0.4-2.2c-0.5-0.4-1.7-0.6-3.5-0.6h-1.1
			L455.2,151.4z"/>
		<polygon class="st1" points="156.3,133.6 239.8,133.6 199.3,72.3 285.9,18.2 202.5,18.2 174.9,35.4 163.6,18.2 80.1,18.2 
			115.9,72.3 17.6,133.6 101.1,133.6 140.2,109.2 		"/>
	</g>
</g>
</svg>
